<svg xmlns="http://www.w3.org/2000/svg" width="165" height="165" fill="none" viewBox="0 0 165 165">
  <rect width="165" height="165" fill="#193949" rx="10"/>
  <path fill="#FF9F5F" d="M123.2 65.4v-7.8c0-2.7.563-4 4.05-4h10.238v-18h-14.4c-14.85 0-23.288 7.7-23.288 21.1v8.4c0 5-.563 7.4-12.487 7.4H86.3v19.8h1.013c11.362.2 12.487 2.3 12.487 7.4v8.7c0 17.3 12.6 20.9 23.175 20.9H137.6v-17.6h-9.787c-4.275 0-4.613-2.1-4.613-4.5v-7.7c0-7.4-1.237-15.1-9.9-17.6 9.113-3.1 9.9-9.6 9.9-16.5ZM27.125 34.1 26 34v20.2l.9.1C41.975 56.9 53 68.8 53 82.5s-10.913 25.6-26.1 28.2l-.9.1v20.3l1.125-.1C54.8 128.6 76.4 107.3 76.4 82.6c0-24.8-21.6-46.1-49.275-48.5Z"/>
</svg>
